<?xml version="1.0" encoding="UTF-8" standalone="no"?>
<!-- Created with Inkscape (http://www.inkscape.org/) -->

<svg
   xmlns:dc="http://purl.org/dc/elements/1.1/"
   xmlns:cc="http://creativecommons.org/ns#"
   xmlns:rdf="http://www.w3.org/1999/02/22-rdf-syntax-ns#"
   xmlns:svg="http://www.w3.org/2000/svg"
   xmlns="http://www.w3.org/2000/svg"
   xmlns:sodipodi="http://sodipodi.sourceforge.net/DTD/sodipodi-0.dtd"
   xmlns:inkscape="http://www.inkscape.org/namespaces/inkscape"
   width="210mm"
   height="297mm"
   viewBox="0 0 210 297"
   version="1.1"
   id="svg8"
   inkscape:version="0.92.2 5c3e80d, 2017-08-06"
   sodipodi:docname="agu_help_desk_hex_design.svg">
  <defs
     id="defs2" />
  <sodipodi:namedview
     id="base"
     pagecolor="#ffffff"
     bordercolor="#666666"
     borderopacity="1.0"
     inkscape:pageopacity="0.0"
     inkscape:pageshadow="2"
     inkscape:zoom="2.7612988"
     inkscape:cx="406.61264"
     inkscape:cy="728.68576"
     inkscape:document-units="mm"
     inkscape:current-layer="layer1"
     showgrid="false"
     inkscape:snap-global="false"
     inkscape:snap-grids="false"
     inkscape:snap-to-guides="false"
     inkscape:window-width="1179"
     inkscape:window-height="843"
     inkscape:window-x="38"
     inkscape:window-y="1"
     inkscape:window-maximized="0"
     inkscape:snap-bbox="true">
    <inkscape:grid
       type="xygrid"
       id="grid12" />
  </sodipodi:namedview>
  <metadata
     id="metadata5">
    <rdf:RDF>
      <cc:Work
         rdf:about="">
        <dc:format>image/svg+xml</dc:format>
        <dc:type
           rdf:resource="http://purl.org/dc/dcmitype/StillImage" />
        <dc:title />
      </cc:Work>
    </rdf:RDF>
  </metadata>
  <g
     inkscape:label="Layer 1"
     inkscape:groupmode="layer"
     id="layer1">
    <path
       sodipodi:type="star"
       style="opacity:1;fill:none;fill-opacity:1;fill-rule:nonzero;stroke:#000000;stroke-width:1.32844043;stroke-miterlimit:4;stroke-dasharray:none;stroke-dashoffset:0;stroke-opacity:1"
       id="path10"
       sodipodi:sides="6"
       sodipodi:cx="48.380955"
       sodipodi:cy="126.91071"
       sodipodi:r1="66.010704"
       sodipodi:r2="57.166946"
       sodipodi:arg1="0.51488478"
       sodipodi:arg2="1.0384836"
       inkscape:flatsided="true"
       inkscape:rounded="0"
       inkscape:randomized="0"
       d="M 105.83334,159.41667 48.956164,192.91891 -8.4962166,160.41296 -9.0714263,94.40476 47.805745,60.902515 105.25813,93.408468 Z"
       transform="matrix(0.3798498,0.00338639,-0.00342962,0.38035897,83.272108,50.921009)" />
    <text
       xml:space="preserve"
       style="font-style:normal;font-variant:normal;font-weight:normal;font-stretch:normal;font-size:7.05555534px;line-height:4.23333311px;font-family:Courier;-inkscape-font-specification:Courier;text-align:start;letter-spacing:0px;word-spacing:0px;writing-mode:lr-tb;text-anchor:start;fill:#000000;fill-opacity:1;stroke:none;stroke-width:0.25;stroke-linecap:butt;stroke-linejoin:miter;stroke-miterlimit:4;stroke-dasharray:none;stroke-opacity:1"
       x="91.328819"
       y="89.438721"
       id="text830"><tspan
         sodipodi:role="line"
         id="tspan828"
         x="91.328819"
         y="89.438721"
         style="font-weight:bold;fill:#ab37c8;stroke-width:0.25;stroke-miterlimit:4;stroke-dasharray:none">Help!</tspan></text>
    <g
       id="g962"
       transform="matrix(1.2455148,0,0,1.2455148,57.214195,-27.869154)"
       style="stroke-width:0.14161927;stroke-miterlimit:4;stroke-dasharray:none">
      <path
         inkscape:connector-curvature="0"
         id="path838"
         d="m 31.192769,113.01927 v -4.95458 h 8.91825 v 4.95458 l -1.98183,3.96367 h -8.918253 z"
         style="fill:#beb7c8;fill-rule:evenodd;stroke:#000000;stroke-width:0.14161927;stroke-linecap:butt;stroke-linejoin:miter;stroke-miterlimit:4;stroke-dasharray:none;stroke-opacity:1" />
      <path
         inkscape:connector-curvature="0"
         id="path840"
         d="m 31.192769,113.01927 h 8.91825"
         style="fill:none;fill-rule:evenodd;stroke:#000000;stroke-width:0.14161927;stroke-linecap:butt;stroke-linejoin:miter;stroke-miterlimit:4;stroke-dasharray:none;stroke-opacity:1" />
      <path
         sodipodi:nodetypes="ccccc"
         inkscape:connector-curvature="0"
         id="path842"
         d="m 31.435763,113.59603 7.820736,0.0156 -0.82768,1.59601 -7.745768,-0.009 z"
         style="fill:#dedbe3;fill-rule:evenodd;stroke:#000000;stroke-width:0.14161927;stroke-linecap:butt;stroke-linejoin:miter;stroke-miterlimit:4;stroke-dasharray:none;stroke-opacity:1" />
      <path
         sodipodi:nodetypes="ccccc"
         inkscape:connector-curvature="0"
         id="path844"
         d="m 32.981795,115.5637 2.929644,0.0593 -0.4966,1.01506 h -2.951511 z"
         style="fill:#9d93ac;fill-rule:evenodd;stroke:#000000;stroke-width:0.14161927;stroke-linecap:butt;stroke-linejoin:miter;stroke-miterlimit:4;stroke-dasharray:none;stroke-opacity:1" />
      <path
         sodipodi:nodetypes="ccccc"
         inkscape:connector-curvature="0"
         id="path846"
         d="m 31.694997,108.62062 0.0406,3.84478 7.801992,-0.05 v -3.75108 z"
         style="fill:#5d536c;fill-rule:evenodd;stroke:#000000;stroke-width:0.14161927;stroke-linecap:butt;stroke-linejoin:miter;stroke-miterlimit:4;stroke-dasharray:none;stroke-opacity:1" />
      <path
         inkscape:connector-curvature="0"
         id="path848"
         d="m 35.405469,108.35827 h 0.44976"
         style="fill:none;fill-rule:evenodd;stroke:#000000;stroke-width:0.14161927;stroke-linecap:butt;stroke-linejoin:miter;stroke-miterlimit:4;stroke-dasharray:none;stroke-opacity:1" />
      <text
         id="text852"
         y="110.1892"
         x="32.161015"
         style="font-style:normal;font-variant:normal;font-weight:normal;font-stretch:normal;font-size:1.41111112px;line-height:3.17093372px;font-family:Courier;-inkscape-font-specification:Courier;text-align:start;letter-spacing:0px;word-spacing:0px;writing-mode:lr-tb;text-anchor:start;fill:#000000;fill-opacity:1;stroke:none;stroke-width:0.14161927;stroke-linecap:butt;stroke-linejoin:miter;stroke-miterlimit:4;stroke-dasharray:none;stroke-opacity:1"
         xml:space="preserve"><tspan
           style="font-weight:bold;fill:#ffffff;stroke-width:0.14161927;stroke-miterlimit:4;stroke-dasharray:none"
           y="110.1892"
           x="32.161015"
           id="tspan850"
           sodipodi:role="line">&gt;...</tspan></text>
    </g>
    <g
       id="g910"
       transform="matrix(0.56126101,0,0,0.56126101,57.188731,38.648091)"
       style="stroke-width:0.31427248;stroke-miterlimit:4;stroke-dasharray:none">
      <path
         sodipodi:nodetypes="csssscscccc"
         inkscape:connector-curvature="0"
         id="path36"
         d="m 51.16458,120.61005 c -2.37061,-3.85115 2.57452,-7.26631 1.24825,-12.42577 -1.16681,-4.53911 -7.82413,-2.93841 -6.63842,1.41847 0.24031,0.88303 0.97801,2.20898 2.04259,1.53194 0.86593,-0.5507 0.16616,-0.80314 -0.15835,-1.48088 -0.27092,-0.56581 -0.0465,-1.32144 0.38531,-1.75322 0.74916,-0.35892 1.54795,-0.0921 1.77782,0.31518 0.55466,0.98275 0.69331,2.82144 0.0945,3.25936 -1.78348,4.74537 -2.23972,6.5433 -2.04259,9.2484 0.55569,-0.87863 0.51929,1.64443 1.41847,2.72345 0.12102,0.60321 0.3405,0.83702 0.51065,1.13477"
         style="fill:none;fill-rule:evenodd;stroke:#000000;stroke-width:0.31427248;stroke-linecap:butt;stroke-linejoin:miter;stroke-miterlimit:4;stroke-dasharray:none;stroke-opacity:1" />
      <path
         inkscape:connector-curvature="0"
         id="path40"
         d="m 52.24262,132.80885 c -0.34474,-2.60509 -0.96456,-5.16323 -0.96456,-6.86537 -0.78351,2.21856 -0.60263,-0.49152 0.0567,-1.64542 -0.493,-4.57792 3.85827,-6.92121 3.85827,-10.55339 -1.35166,3.04075 1.05266,-4.29315 2.15607,-4.76604 0.27225,0.47181 0,1.16622 0,1.36172 0,0.11779 0.4749,-1.40372 1.07803,-2.60997 0.82258,-1.64517 1.37584,-3.02127 2.09933,-3.74475 0.36306,2.68647 2.38199,4.90098 2.83693,5.44691"
         style="fill:none;fill-rule:evenodd;stroke:#000000;stroke-width:0.31427248;stroke-linecap:butt;stroke-linejoin:miter;stroke-miterlimit:4;stroke-dasharray:none;stroke-opacity:1" />
      <path
         sodipodi:nodetypes="ccscssc"
         inkscape:connector-curvature="0"
         id="path44"
         d="m 61.56923,106.92962 c 0.47901,-0.61304 0.98771,-0.96976 1.39436,-1.45774 0.92537,3.79753 2.9632,3.29855 2.97018,6.09772 0.001,0.47998 0.13545,0.96379 0.13545,1.63465 -0.0175,0.44496 0.16207,0.96287 0.30891,1.4601 0.14497,0.4909 0.25802,0.96163 0.11797,1.3221 -0.67501,1.73742 -3.02928,2.41333 -5.68743,1.27412"
         style="fill:none;fill-rule:evenodd;stroke:#000000;stroke-width:0.31427248;stroke-linecap:butt;stroke-linejoin:miter;stroke-miterlimit:4;stroke-dasharray:none;stroke-opacity:1" />
      <path
         sodipodi:nodetypes="cc"
         inkscape:connector-curvature="0"
         id="path54"
         d="m 64.23119,117.70423 c -1.16261,2.3388 -3.31009,0.89236 -4.62674,0.44366"
         style="fill:none;fill-rule:evenodd;stroke:#000000;stroke-width:0.31427248;stroke-linecap:butt;stroke-linejoin:miter;stroke-miterlimit:4;stroke-dasharray:none;stroke-opacity:1" />
      <path
         sodipodi:nodetypes="cc"
         inkscape:connector-curvature="0"
         id="path56"
         d="m 61.75937,118.90845 c -0.14864,4.94026 2.47077,7.17026 4.49999,8.6197"
         style="fill:none;fill-rule:evenodd;stroke:#000000;stroke-width:0.31427248;stroke-linecap:butt;stroke-linejoin:miter;stroke-miterlimit:4;stroke-dasharray:none;stroke-opacity:1" />
      <path
         inkscape:connector-curvature="0"
         id="path58"
         d="m 59.54107,122.64788 c 0.0754,2.2745 1.2658,5.06726 1.77464,5.95773"
         style="fill:none;fill-rule:evenodd;stroke:#000000;stroke-width:0.31427248;stroke-linecap:butt;stroke-linejoin:miter;stroke-miterlimit:4;stroke-dasharray:none;stroke-opacity:1" />
      <path
         inkscape:connector-curvature="0"
         id="path60"
         d="m 54.3439,123.78872 c -0.10393,1.99874 0.96573,4.4133 1.33098,5.38731"
         style="fill:none;fill-rule:evenodd;stroke:#000000;stroke-width:0.31427248;stroke-linecap:butt;stroke-linejoin:miter;stroke-miterlimit:4;stroke-dasharray:none;stroke-opacity:1" />
      <path
         sodipodi:nodetypes="cssc"
         inkscape:connector-curvature="0"
         id="path62"
         d="m 66.4495,115.48593 c -0.93997,-0.32908 -1.29483,-0.89306 -1.02807,-1.12684 0.38598,-0.33826 1.65931,-0.84285 1.83718,-0.53639 0.15124,0.26059 -0.14033,0.82051 -0.80911,1.66323 z"
         style="fill:#ab37c8;fill-opacity:1;fill-rule:evenodd;stroke:#000000;stroke-width:0.31427248;stroke-linecap:butt;stroke-linejoin:miter;stroke-miterlimit:4;stroke-dasharray:none;stroke-opacity:1" />
      <path
         inkscape:connector-curvature="0"
         id="path64"
         d="m 61.44247,113.01411 c 1.4089,-2.18274 1.6563,-0.86768 2.2183,0.44366"
         style="fill:none;fill-rule:evenodd;stroke:#000000;stroke-width:0.31427248;stroke-linecap:butt;stroke-linejoin:miter;stroke-miterlimit:4;stroke-dasharray:none;stroke-opacity:1" />
      <path
         inkscape:connector-curvature="0"
         id="path66"
         d="m 63.78753,115.16903 c -2.4598,-0.12489 -5.435,-1.03589 -7.28871,-1.2676"
         style="fill:none;fill-rule:evenodd;stroke:#000000;stroke-width:0.31427248;stroke-linecap:butt;stroke-linejoin:miter;stroke-miterlimit:4;stroke-dasharray:none;stroke-opacity:1" />
      <path
         sodipodi:nodetypes="ccc"
         inkscape:connector-curvature="0"
         id="path68"
         d="m 55.86502,116.30987 c 1.90046,0 5.65912,-1.29305 7.92251,-1.14084 -2.10029,0.8014 -4.3481,1.74764 -5.89434,2.85211"
         style="fill:none;fill-rule:evenodd;stroke:#000000;stroke-width:0.31427248;stroke-linecap:butt;stroke-linejoin:miter;stroke-miterlimit:4;stroke-dasharray:none;stroke-opacity:1" />
    </g>
    <g
       id="g1010"
       transform="matrix(0.56304822,-0.13056942,0.13056942,0.56304822,52.550986,82.696492)"
       style="stroke-width:0.30517672;stroke-miterlimit:4;stroke-dasharray:none">
      <g
         id="g1027"
         transform="rotate(15,321.31442,-173.47102)"
         style="stroke-width:0.30517672;stroke-miterlimit:4;stroke-dasharray:none">
        <path
           style="fill:none;fill-rule:evenodd;stroke:#000000;stroke-width:0.30517672;stroke-linecap:butt;stroke-linejoin:miter;stroke-miterlimit:4;stroke-dasharray:none;stroke-opacity:1"
           d="m 158.87363,103.0922 c 2.62628,-1.46176 0.0719,3.9055 -0.27308,4.71032 1.50167,4.01922 2.9812,4.95864 3.67265,4.86097 0.86296,-0.12191 1.62614,2.16257 1.92514,2.51171 3.00913,0.47105 6.18312,-8.08437 3.68633,-10.58116 0.37377,0.0886 1.15964,1.10129 1.1513,0.60258 -0.008,-0.45317 -0.10923,-0.69259 -0.46864,-1.42177 -0.35567,-0.72157 -3.02942,-2.45703 -4.09593,-2.73062 -0.79834,-0.20479 -2.22536,-0.58379 -3.82287,-0.0683 -3.76165,1.2139 -4.41945,2.28881 -7.09962,2.86716 -1.60886,0.37758 -2.96762,0.26096 -4.30292,0.60791 -5.64848,1.46764 -3.50413,10.30513 2.59628,5.94558"
           id="path964"
           inkscape:connector-curvature="0"
           sodipodi:nodetypes="ccsccsssscsc" />
        <path
           style="fill:none;fill-rule:evenodd;stroke:#000000;stroke-width:0.30517672;stroke-linecap:butt;stroke-linejoin:miter;stroke-miterlimit:4;stroke-dasharray:none;stroke-opacity:1"
           d="m 149.04338,111.48886 c 2.19848,2.09941 6.41559,4.67191 9.83025,3.20848"
           id="path966"
           inkscape:connector-curvature="0" />
        <g
           id="g971"
           style="stroke:#000000;stroke-width:0.30517672;stroke-miterlimit:4;stroke-dasharray:none"
           transform="translate(-126.06673,6.3150311)">
          <path
             inkscape:connector-curvature="0"
             id="path968"
             d="m 283.43852,108.72364 c 0.91508,0.46906 1.1893,0.61698 1.50185,0.75092 -0.10957,1.77667 -0.2048,4.7738 -0.2048,5.05165 1.20822,-2.81855 0.0683,1.76985 0.0683,3.27675"
             style="fill:none;fill-rule:evenodd;stroke:#000000;stroke-width:0.30517672;stroke-linecap:butt;stroke-linejoin:miter;stroke-miterlimit:4;stroke-dasharray:none;stroke-opacity:1" />
          <path
             style="fill:none;fill-rule:evenodd;stroke:#000000;stroke-width:0.30517672;stroke-linecap:butt;stroke-linejoin:miter;stroke-miterlimit:4;stroke-dasharray:none;stroke-opacity:1"
             d="m 294.70233,102.78454 c 0.24218,2.66782 1.88021,6.24921 3.41329,7.78227"
             id="path973"
             inkscape:connector-curvature="0" />
        </g>
        <path
           style="fill:#ab37c8;fill-opacity:1;fill-rule:evenodd;stroke:#000000;stroke-width:0.30517672;stroke-linecap:butt;stroke-linejoin:miter;stroke-miterlimit:4;stroke-dasharray:none;stroke-opacity:1"
           d="m 145.4075,105.59027 c 0.34811,-0.13791 1.45569,-0.68477 2.10006,0.29502 -0.0531,1.28649 -0.90501,2.28528 -1.29331,2.20665 -0.60136,-0.12179 -1.9104,-1.99384 -0.80675,-2.50167 z"
           id="path975"
           inkscape:connector-curvature="0"
           sodipodi:nodetypes="ccsc" />
        <path
           style="fill:none;fill-rule:evenodd;stroke:#000000;stroke-width:0.30517672;stroke-linecap:butt;stroke-linejoin:miter;stroke-miterlimit:4;stroke-dasharray:none;stroke-opacity:1"
           d="m 155.52364,105.34051 c 0.97395,-1.37919 2.45258,-1.52372 2.45258,1.31185"
           id="path977"
           inkscape:connector-curvature="0" />
        <path
           style="fill:none;fill-rule:evenodd;stroke:#000000;stroke-width:0.30517672;stroke-linecap:butt;stroke-linejoin:miter;stroke-miterlimit:4;stroke-dasharray:none;stroke-opacity:1"
           d="m 148.67924,106.42421 c 0.17933,0.0208 0.13948,0 0.34221,0"
           id="path979"
           inkscape:connector-curvature="0" />
        <path
           style="fill:none;fill-rule:evenodd;stroke:#000000;stroke-width:0.30517672;stroke-linecap:butt;stroke-linejoin:miter;stroke-miterlimit:4;stroke-dasharray:none;stroke-opacity:1"
           d="m 149.81996,107.67902 c 0.076,0 0.15211,0 0.22815,0"
           id="path981"
           inkscape:connector-curvature="0" />
        <path
           style="fill:none;fill-rule:evenodd;stroke:#000000;stroke-width:0.30517672;stroke-linecap:butt;stroke-linejoin:miter;stroke-miterlimit:4;stroke-dasharray:none;stroke-opacity:1"
           d="m 148.05183,107.90716 c 0.75131,0.83019 -0.63212,-0.75854 0.28517,0.34222"
           id="path983"
           inkscape:connector-curvature="0" />
        <path
           style="fill:none;fill-rule:evenodd;stroke:#000000;stroke-width:0.30517672;stroke-linecap:butt;stroke-linejoin:miter;stroke-miterlimit:4;stroke-dasharray:none;stroke-opacity:1"
           d="m 149.07849,109.16197 c 0.41778,-0.0889 0.11115,0.0222 0.28517,0.057"
           id="path985"
           inkscape:connector-curvature="0" />
        <path
           style="fill:none;fill-rule:evenodd;stroke:#000000;stroke-width:0.30517672;stroke-linecap:butt;stroke-linejoin:miter;stroke-miterlimit:4;stroke-dasharray:none;stroke-opacity:1"
           d="m 147.65257,109.16197 c 0.19587,0.28774 0.28655,0.16375 0.39926,0.22815"
           id="path987"
           inkscape:connector-curvature="0" />
        <path
           style="fill:none;fill-rule:evenodd;stroke:#000000;stroke-width:0.30517672;stroke-linecap:butt;stroke-linejoin:miter;stroke-miterlimit:4;stroke-dasharray:none;stroke-opacity:1"
           d="m 150.50441,109.21901 c 0.0459,0.77735 0.018,-0.0721 -0.057,0.22814"
           id="path989"
           inkscape:connector-curvature="0" />
        <path
           style="fill:none;fill-rule:evenodd;stroke:#000000;stroke-width:0.30517672;stroke-linecap:butt;stroke-linejoin:miter;stroke-miterlimit:4;stroke-dasharray:none;stroke-opacity:1"
           d="m 149.30664,109.84641 c 0,0 0,0 0,0 z"
           id="path991"
           inkscape:connector-curvature="0" />
        <path
           style="fill:none;fill-rule:evenodd;stroke:#000000;stroke-width:0.30517672;stroke-linecap:butt;stroke-linejoin:miter;stroke-miterlimit:4;stroke-dasharray:none;stroke-opacity:1"
           d="m 148.9644,110.41678 c 0.12698,0 0.24257,0 0.34224,0"
           id="path993"
           inkscape:connector-curvature="0" />
      </g>
    </g>
    <path
       style="fill:none;fill-rule:evenodd;stroke:#000000;stroke-width:0.17638889;stroke-linecap:butt;stroke-linejoin:miter;stroke-opacity:1;stroke-miterlimit:4;stroke-dasharray:none"
       d="m 90.855362,92.194752 c -0.29197,0.752329 -1.73564,0.923357 -1.861097,0 -0.255347,-0.510694 1.334288,-1.034381 0.93055,-1.438119 -0.985584,-0.985583 -2.321722,-1.123115 -2.453264,-1.945693 -0.227871,-1.325275 1.562171,-1.647818 1.861095,-2.622455 0.295378,-0.147687 -1.066188,-1.292324 -0.153148,-2.210546 0.665285,-0.66906 1.521498,0.01107 1.675869,0.01107 0.45409,-1.145857 0.697486,-1.600937 1.104378,-1.774164 0.860231,-0.36623 1.069979,0.13439 2.364034,0.505235 0.547516,0 0.669595,-0.872198 0.93055,-1.353526 0.485371,-0.89526 1.094001,-1.346163 1.961728,-0.930547 0.53482,0.256163 0.700016,1.284188 1.015588,1.598192 0.311102,0.309554 1.107134,-0.671767 1.353678,-0.507166 0.575307,0.384094 0.133,0.748621 0.575537,1.193047 1.01398,0.03787 1.76022,-1.858872 3.4684,-1.438121 1.54803,0.129998 2.2181,2.357922 2.36867,2.70705 0.29445,0.147225 0.65792,-0.726714 1.18434,-1.184333 0.47163,-0.409989 1.00858,0.288388 1.60731,0.845952 0.78807,1.086177 0.96047,-1.200399 2.70705,-1.099738 1.86829,0.849279 1.65983,2.058889 1.18433,2.87624 -0.15073,0.259098 -0.89192,0.676762 -0.59216,0.676762 1.99908,0 2.31727,-0.323371 3.04543,1.861098 0.86647,2.599415 -2.86492,1.680583 -3.21462,2.030285 -0.11436,0.114353 1.12706,2.169531 1.26892,2.453265 0.45439,0.90878 -1.34529,2.038516 -2.03028,1.353526 -0.28413,-0.284123 -0.67677,-1.018725 -0.67677,-1.015146 0,0.536803 1.13953,2.960839 0.0846,2.960839 -2.17546,0 -0.98072,-1.674696 -1.8611,-2.114884 -1.86709,-0.933545 -4.82193,1.430129 -4.82193,-2.114883 -0.85318,0.544522 -2.17102,3.225197 -3.97598,1.607312 -0.753738,-1.657179 -0.253191,-0.676764 -3.383812,-0.676764 -0.356685,0 -1.015143,-0.695066 -1.015143,-0.338381 0,3.004145 -1.791684,2.776463 -2.960835,1.607312 -0.363861,-0.363858 -0.02365,1.062466 -0.253789,1.522714 -0.220236,0.440475 -1.217882,0.778856 -1.438119,0.338383 -0.816157,-1.632312 -0.283121,-2.311806 0.808343,-3.621562 z"
       id="path1029"
       inkscape:connector-curvature="0"
       sodipodi:nodetypes="ccsccscscsssscccsccssccccsscccssccscc" />
    <ellipse
       style="opacity:1;fill:#ffffff;fill-opacity:1;fill-rule:nonzero;stroke:#000000;stroke-width:0.17638889;stroke-miterlimit:4;stroke-dasharray:none;stroke-dashoffset:0;stroke-opacity:1"
       id="path1031"
       cx="93.149605"
       cy="96.459702"
       rx="0.38039654"
       ry="0.35662174" />
    <circle
       style="opacity:1;fill:#ffffff;fill-opacity:1;fill-rule:nonzero;stroke:#000000;stroke-width:0.17638889;stroke-miterlimit:4;stroke-dasharray:none;stroke-dashoffset:0;stroke-opacity:1"
       id="path1033"
       cx="94.837616"
       cy="95.413612"
       r="0.40417132" />
    <ellipse
       style="opacity:1;fill:#ffffff;fill-opacity:1;fill-rule:nonzero;stroke:#000000;stroke-width:0.17638889;stroke-miterlimit:4;stroke-dasharray:none;stroke-dashoffset:0;stroke-opacity:1"
       id="path1035"
       cx="94.219467"
       cy="98.623207"
       rx="0.16642348"
       ry="0.19019827" />
    <ellipse
       style="opacity:1;fill:#ffffff;fill-opacity:1;fill-rule:nonzero;stroke:#000000;stroke-width:0.17638889;stroke-miterlimit:4;stroke-dasharray:none;stroke-dashoffset:0;stroke-opacity:1"
       id="path1031-7"
       cx="112.31207"
       cy="95.461159"
       rx="0.38039654"
       ry="0.35662177" />
    <circle
       style="opacity:1;fill:#ffffff;fill-opacity:1;fill-rule:nonzero;stroke:#000000;stroke-width:0.17638889;stroke-miterlimit:4;stroke-dasharray:none;stroke-dashoffset:0;stroke-opacity:1"
       id="path1033-9"
       cx="114.04762"
       cy="96.126854"
       r="0.40417132" />
    <ellipse
       style="opacity:1;fill:#ffffff;fill-opacity:1;fill-rule:nonzero;stroke:#000000;stroke-width:0.17638889;stroke-miterlimit:4;stroke-dasharray:none;stroke-dashoffset:0;stroke-opacity:1"
       id="path1035-3"
       cx="113.38193"
       cy="-97.624664"
       rx="0.16642348"
       ry="0.19019827"
       transform="scale(1,-1)" />
    <ellipse
       style="opacity:1;fill:#ffffff;fill-opacity:1;fill-rule:nonzero;stroke:#000000;stroke-width:0.17638889;stroke-miterlimit:4;stroke-dasharray:none;stroke-dashoffset:0;stroke-opacity:1"
       id="path1031-0"
       cx="113.88121"
       cy="94.058449"
       rx="0.38039654"
       ry="0.35662177" />
  </g>
</svg>
